<?xml version="1.0" encoding="UTF-8"?>
<svg xmlns="http://www.w3.org/2000/svg" xmlns:xlink="http://www.w3.org/1999/xlink" width="112px" height="px" viewBox="0 0 112 112" version="1.1">
<g id="surface1">
<path style=" stroke:none;fill-rule:evenodd;fill:rgb(91.764706%,15.686275%,27.058824%);fill-opacity:1;" d="M 65.945312 0.21875 C 65.136719 0.21875 64.382812 0.390625 63.695312 0.613281 C 65.171875 1.605469 65.976562 2.898438 66.386719 4.371094 C 66.414062 4.570312 66.472656 4.714844 66.5 4.921875 C 66.527344 5.125 66.566406 5.265625 66.566406 5.449219 C 66.683594 7.996094 65.90625 8.3125 65.347656 9.816406 C 64.507812 11.753906 64.742188 13.835938 65.746094 15.503906 C 65.839844 15.726562 65.953125 15.941406 66.089844 16.140625 C 64.992188 8.824219 71.097656 7.71875 72.222656 5.4375 C 72.308594 3.4375 70.660156 2.109375 69.359375 1.183594 C 68.113281 0.429688 66.976562 0.191406 65.945312 0.191406 Z M 75.136719 1.871094 C 75.019531 2.535156 75.113281 2.359375 75.074219 2.710938 L 75.007812 3.464844 L 74.808594 4.160156 C 74.742188 4.390625 74.664062 4.625 74.578125 4.855469 L 74.257812 5.515625 C 74.171875 5.636719 74.113281 5.746094 74.027344 5.859375 L 73.855469 6.125 L 73.417969 6.699219 C 73.246094 6.871094 73.101562 7.078125 72.890625 7.230469 C 72.679688 7.382812 72.546875 7.574219 72.339844 7.71875 C 71.730469 8.183594 71.039062 8.527344 70.402344 8.960938 C 70.203125 9.109375 70.003906 9.226562 69.828125 9.398438 C 69.632812 9.539062 69.449219 9.691406 69.277344 9.863281 C 69.078125 10.035156 68.933594 10.207031 68.75 10.410156 C 68.5625 10.617188 68.429688 10.789062 68.3125 10.988281 L 67.914062 11.59375 L 67.597656 12.257812 L 67.367188 12.917969 L 67.167969 13.644531 C 67.140625 13.765625 67.140625 13.910156 67.101562 14.023438 C 67.0625 14.136719 67.074219 14.253906 67.035156 14.367188 L 67.007812 15.09375 C 67.007812 15.265625 67.007812 15.4375 67.035156 15.621094 C 67.035156 15.855469 67.0625 16.085938 67.121094 16.351562 C 67.179688 16.613281 67.207031 16.8125 67.265625 17.046875 L 67.5 17.738281 C 67.566406 17.886719 67.644531 18.03125 67.699219 18.136719 L 61.042969 15.558594 L 57.691406 14.695312 L 55.863281 14.261719 C 54.125 13.914062 52.367188 13.652344 50.597656 13.480469 C 50.535156 13.480469 50.511719 13.453125 50.453125 13.453125 L 45.273438 13.1875 L 41.484375 13.335938 C 39.71875 13.453125 37.953125 13.679688 36.195312 13.96875 L 34.890625 14.199219 L 32.285156 14.777344 L 30.980469 15.121094 L 29.738281 15.667969 L 28.785156 16.105469 C 28.71875 16.132812 28.667969 16.132812 28.640625 16.171875 L 27.832031 16.570312 C 27.746094 16.59375 27.6875 16.636719 27.632812 16.65625 L 26.734375 17.117188 C 26.535156 17.203125 26.339844 17.316406 26.160156 17.410156 C 26.074219 17.476562 25.960938 17.519531 25.894531 17.554688 L 25.140625 17.992188 C 24.902344 18.125 24.667969 18.269531 24.445312 18.425781 L 23.871094 18.824219 L 23.234375 19.289062 L 22.746094 19.683594 C 22.679688 19.710938 22.628906 19.769531 22.574219 19.804688 L 22.136719 20.179688 C 22.113281 20.246094 22.050781 20.265625 22.019531 20.300781 L 21.488281 20.789062 L 20.914062 21.335938 L 20.425781 21.867188 C 20.359375 21.933594 20.28125 21.984375 20.226562 22.039062 C 20.070312 22.21875 19.90625 22.394531 19.738281 22.5625 C 19.710938 22.628906 19.652344 22.648438 19.617188 22.707031 L 18.957031 23.402344 L 17.394531 24.902344 C 16.867188 25.367188 16.324219 25.800781 15.773438 26.171875 L 14.042969 27.269531 C 13.464844 27.589844 12.851562 27.878906 12.214844 28.128906 C 11.601562 28.390625 10.976562 28.625 10.339844 28.824219 C 9.121094 29.089844 7.878906 29.578125 6.804688 29.664062 C 6.574219 29.664062 6.316406 29.730469 6.078125 29.75 L 5.351562 29.921875 L 4.65625 30.1875 C 4.417969 30.28125 4.1875 30.386719 3.960938 30.503906 C 3.761719 30.652344 3.527344 30.769531 3.328125 30.902344 C 3.128906 31.035156 2.929688 31.21875 2.75 31.390625 C 2.574219 31.5625 2.355469 31.734375 2.175781 31.921875 L 1.6875 32.496094 C 1.542969 32.726562 1.371094 32.933594 1.25 33.15625 C 1.097656 33.371094 0.964844 33.59375 0.847656 33.824219 L 0.527344 34.578125 L 0.265625 35.332031 L 0.117188 36.027344 C 0.03125 36.371094 0.03125 36.722656 0 36.886719 C -0.03125 37.054688 0 37.273438 0 37.476562 C -0.00390625 37.601562 0.00390625 37.730469 0.0273438 37.855469 C 0.0546875 38.050781 0.09375 38.230469 0.144531 38.402344 L 0.34375 38.933594 C 0.429688 39.128906 0.542969 39.308594 0.660156 39.480469 L 1.039062 40.011719 L 1.527344 40.472656 C 1.699219 40.640625 1.882812 40.796875 2.078125 40.9375 C 2.769531 41.542969 2.9375 41.742188 3.84375 42.207031 C 3.988281 42.292969 4.132812 42.351562 4.304688 42.4375 C 4.390625 42.523438 4.390625 42.550781 4.425781 42.609375 C 4.453125 42.839844 4.511719 43.074219 4.570312 43.304688 C 4.625 43.542969 4.703125 43.773438 4.800781 44 L 5.035156 44.527344 C 5.058594 44.59375 5.101562 44.648438 5.121094 44.671875 L 5.464844 45.308594 L 5.898438 45.917969 L 6.390625 46.464844 C 6.5625 46.636719 6.734375 46.78125 6.9375 46.953125 L 7.515625 47.390625 C 7.710938 47.535156 7.910156 47.65625 8.148438 47.769531 C 8.363281 47.890625 8.585938 47.996094 8.816406 48.085938 C 8.988281 48.171875 9.195312 48.230469 9.390625 48.285156 C 9.589844 48.335938 9.769531 48.402344 9.882812 48.429688 C 9.796875 49.992188 9.761719 51.472656 10 51.988281 C 10.265625 52.5625 11.535156 50.796875 12.804688 48.78125 C 12.632812 50.777344 12.515625 53.121094 12.804688 53.808594 C 13.097656 54.496094 14.855469 52.273438 16.363281 49.785156 C 36.867188 45.042969 55.585938 59.21875 57.550781 79.234375 C 57.175781 76.109375 53.332031 74.371094 51.566406 74.800781 C 50.707031 76.945312 49.222656 79.695312 46.847656 81.394531 C 47.046875 79.476562 46.960938 77.519531 46.558594 75.609375 C 45.910156 78.269531 44.6875 80.757812 42.972656 82.898438 C 40.226562 83.09375 37.484375 81.773438 36.027344 79.773438 C 35.910156 79.6875 35.882812 79.511719 35.796875 79.398438 L 35.566406 78.789062 C 35.480469 78.589844 35.417969 78.394531 35.394531 78.179688 C 35.367188 77.96875 35.367188 77.785156 35.367188 77.546875 L 35.367188 77.109375 C 35.394531 76.910156 35.453125 76.710938 35.511719 76.5 L 35.710938 75.890625 C 35.828125 75.695312 35.910156 75.496094 36.054688 75.285156 C 36.542969 73.960938 36.542969 72.769531 35.65625 72.109375 C 35.484375 71.988281 35.3125 71.910156 35.109375 71.816406 C 34.988281 71.792969 34.84375 71.730469 34.730469 71.699219 L 34.5 71.613281 L 33.890625 71.46875 C 33.695312 71.410156 33.488281 71.382812 33.28125 71.382812 C 33.074219 71.347656 32.859375 71.328125 32.648438 71.320312 C 32.503906 71.320312 32.355469 71.347656 32.210938 71.347656 C 31.996094 71.347656 31.78125 71.375 31.578125 71.433594 L 30.96875 71.546875 L 30.359375 71.746094 L 29.785156 72.011719 L 29.234375 72.300781 C 22.488281 76.699219 26.523438 86.984375 31.113281 89.972656 C 29.378906 90.292969 27.609375 90.667969 27.125 91.046875 C 28.316406 91.851562 29.613281 92.5 30.976562 93.042969 L 35.65625 94.367188 C 38.058594 94.894531 40.484375 95.0625 42.945312 94.914062 C 55.824219 93.972656 66.3125 84.203125 68.167969 71.429688 L 68.339844 72.183594 L 68.605469 73.800781 L 68.722656 74.582031 L 68.789062 75.441406 L 68.855469 76.394531 L 68.855469 76.859375 C 68.855469 77.003906 68.882812 77.175781 68.882812 77.320312 C 68.882812 77.464844 68.855469 77.664062 68.855469 77.851562 L 68.855469 78.246094 C 68.855469 78.445312 68.828125 78.625 68.828125 78.824219 C 68.828125 78.933594 68.828125 79.054688 68.800781 79.199219 L 68.777344 79.835938 C 68.75 79.921875 68.75 80.007812 68.75 80.097656 L 68.664062 80.761719 C 68.664062 80.847656 68.664062 80.933594 68.636719 81.023438 L 68.523438 81.863281 L 68.523438 81.929688 L 68.351562 82.738281 L 68.179688 83.597656 L 67.949219 84.496094 L 67.71875 85.398438 L 67.425781 86.324219 L 66.792969 88.003906 L 66.449219 88.84375 L 66.050781 89.648438 C 66.023438 89.734375 65.984375 89.796875 65.964844 89.847656 C 64.027344 93.726562 61.25 97.058594 57.777344 99.652344 C 57.542969 99.796875 57.3125 99.96875 57.082031 100.140625 C 57.015625 100.207031 56.9375 100.226562 56.882812 100.285156 L 56.246094 100.722656 L 56.335938 100.894531 L 56.359375 100.894531 L 57.578125 100.722656 L 57.605469 100.722656 L 59.851562 100.324219 C 60.050781 100.300781 60.289062 100.238281 60.488281 100.179688 L 60.882812 100.09375 L 61.492188 99.980469 L 62.023438 99.835938 C 64.914062 99.140625 67.710938 98.183594 70.410156 97.058594 C 65.8125 103.34375 59.648438 108.394531 52.445312 111.722656 C 55.773438 111.492188 59.097656 110.941406 62.300781 110.015625 C 73.953125 106.578125 83.761719 98.738281 89.636719 88.175781 C 88.445312 94.871094 85.789062 101.222656 81.859375 106.773438 C 84.664062 104.921875 87.234375 102.785156 89.585938 100.359375 C 96.058594 93.597656 100.308594 85.019531 101.761719 75.773438 C 102.753906 80.335938 103.03125 85.058594 102.601562 89.714844 C 123.484375 60.585938 104.335938 30.386719 96.316406 22.4375 C 96.292969 22.371094 96.25 22.351562 96.25 22.289062 C 96.183594 22.632812 96.164062 22.984375 96.140625 23.328125 C 96.054688 23.988281 95.96875 24.632812 95.847656 25.265625 C 95.730469 25.902344 95.53125 26.535156 95.359375 27.183594 C 95.1875 27.832031 94.921875 28.429688 94.664062 29.035156 C 94.40625 29.644531 94.113281 30.226562 93.804688 30.804688 C 93.484375 31.367188 93.140625 31.917969 92.765625 32.449219 C 92.386719 33 91.984375 33.519531 91.574219 34.011719 C 91.144531 34.515625 90.6875 34.996094 90.210938 35.460938 C 89.921875 35.722656 89.664062 35.949219 89.371094 36.1875 L 88.710938 36.761719 C 88.195312 37.171875 87.652344 37.550781 87.089844 37.894531 C 86.539062 38.25 85.96875 38.578125 85.382812 38.878906 C 84.777344 39.167969 84.167969 39.429688 83.558594 39.6875 C 82.941406 39.917969 82.316406 40.121094 81.679688 40.292969 C 81.046875 40.464844 80.378906 40.613281 79.742188 40.730469 C 79.105469 40.851562 78.417969 40.902344 77.777344 40.960938 C 77.316406 40.988281 76.851562 41.027344 76.453125 41.027344 C 75.792969 41.027344 75.132812 40.960938 74.492188 40.910156 C 73.847656 40.855469 73.167969 40.765625 72.519531 40.617188 C 71.863281 40.5 71.214844 40.335938 70.582031 40.128906 L 70.554688 40.128906 C 71.191406 40.0625 71.824219 40.011719 72.472656 39.898438 C 73.121094 39.785156 73.777344 39.632812 74.410156 39.460938 C 75.046875 39.289062 75.679688 39.082031 76.289062 38.851562 C 76.898438 38.621094 77.53125 38.324219 78.113281 38.046875 C 78.707031 37.757812 79.285156 37.4375 79.847656 37.09375 C 80.398438 36.714844 80.945312 36.339844 81.46875 35.933594 C 81.988281 35.53125 82.480469 35.097656 82.945312 34.632812 C 83.433594 34.195312 83.871094 33.707031 84.304688 33.21875 C 84.742188 32.726562 85.144531 32.179688 85.523438 31.65625 C 85.589844 31.570312 85.640625 31.457031 85.695312 31.363281 L 86.535156 30.042969 C 86.851562 29.464844 87.144531 28.882812 87.394531 28.277344 C 87.644531 27.667969 87.882812 27.058594 88.089844 26.425781 C 88.292969 25.789062 88.433594 25.179688 88.578125 24.546875 C 88.722656 23.910156 88.808594 23.242188 88.871094 22.609375 C 88.929688 21.972656 88.980469 21.285156 88.980469 20.644531 C 88.980469 20.179688 88.957031 19.71875 88.917969 19.320312 C 88.851562 18.660156 88.769531 18.015625 88.683594 17.382812 C 88.570312 16.730469 88.421875 16.082031 88.246094 15.445312 C 88.050781 14.835938 87.851562 14.199219 87.613281 13.59375 C 87.375 12.984375 87.082031 12.375 86.804688 11.804688 C 86.527344 11.238281 86.171875 10.648438 85.8125 10.101562 C 85.457031 9.550781 85.058594 9.027344 84.65625 8.511719 L 83.332031 7.039062 C 83.089844 6.789062 82.835938 6.550781 82.578125 6.316406 C 81.285156 5.308594 79.941406 4.363281 78.558594 3.480469 C 78.359375 3.367188 78.179688 3.28125 77.984375 3.1875 C 77.03125 2.578125 76.128906 2.261719 75.238281 1.972656 Z M 75.136719 1.871094 "/>
</g>
</svg>
