<?xml version="1.0" encoding="UTF-8"?>
<svg xmlns="http://www.w3.org/2000/svg" xmlns:xlink="http://www.w3.org/1999/xlink" width="112px" height="px" viewBox="0 0 112 112" version="1.1">
<g id="surface1">
<path style="fill-rule:nonzero;fill:rgb(0%,0%,0%);fill-opacity:1;stroke-width:2.149;stroke-linecap:butt;stroke-linejoin:miter;stroke:rgb(0%,0%,0%);stroke-opacity:1;stroke-miterlimit:4;" d="M 18.983036 18.635714 C 19.146429 17.278571 19.097321 17.08125 20.107143 17.3 L 20.364286 17.323214 C 21.141071 17.358036 22.157143 17.198214 22.764286 16.921429 C 24.049107 16.325 24.810714 15.328571 23.54375 15.591071 C 20.653571 16.186607 20.44375 15.208036 20.44375 15.208036 C 23.497321 10.677679 24.774107 4.927679 23.671429 3.521429 C 20.666964 -0.31875 15.466071 1.497321 15.378571 1.544643 L 15.350893 1.55 C 14.78125 1.430357 14.150893 1.359821 13.421429 1.35 C 12.113393 1.330357 11.121429 1.692857 10.366964 2.264286 C 10.366964 2.264286 1.090179 -1.558036 1.521429 7.071429 C 1.613393 8.907143 4.150893 20.971429 7.18125 17.321429 C 8.290179 15.986607 9.359821 14.859821 9.359821 14.859821 C 9.890179 15.213393 10.526786 15.392857 11.19375 15.327679 L 11.246429 15.283929 C 11.230357 15.457143 11.2375 15.63125 11.266964 15.801786 C 10.486607 16.674107 10.716964 16.826786 9.157143 17.148214 C 7.578571 17.473214 8.507143 18.051786 9.110714 18.203571 C 9.844643 18.388393 11.542857 18.648214 12.691071 17.041964 L 12.644643 17.225 C 12.950893 17.469643 12.930357 18.984821 12.975 20.066964 C 13.019643 21.149107 13.091071 22.159821 13.311607 22.755357 C 13.533036 23.35 13.791964 24.884821 15.841964 24.455357 C 17.555357 24.088393 18.865179 23.558929 18.984821 18.644643 " transform="matrix(4.375,0,0,4.375,0,0)"/>
<path style=" stroke:none;fill-rule:nonzero;fill:rgb(20%,40.392157%,56.862745%);fill-opacity:1;" d="M 102.964844 68.25 C 90.320312 70.859375 89.402344 66.574219 89.402344 66.574219 C 102.761719 46.753906 108.347656 21.597656 103.527344 15.445312 C 90.382812 -1.355469 67.628906 6.59375 67.25 6.796875 L 67.125 6.820312 C 64.347656 6.261719 61.519531 5.96875 58.6875 5.941406 C 52.964844 5.855469 48.625 7.441406 45.324219 9.941406 C 45.324219 9.941406 4.734375 -6.78125 6.625 30.96875 C 7.027344 39.003906 18.128906 91.78125 31.386719 75.8125 C 36.269531 69.941406 40.949219 65.011719 40.949219 65.011719 C 43.269531 66.558594 46.054688 67.34375 48.972656 67.058594 L 49.203125 66.867188 C 49.132812 67.625 49.164062 68.386719 49.292969 69.132812 C 45.878906 72.949219 46.886719 73.617188 40.0625 75.023438 C 33.15625 76.445312 37.21875 78.976562 39.859375 79.640625 C 43.070312 80.449219 50.5 81.585938 55.523438 74.558594 L 55.320312 75.359375 C 56.660156 76.429688 57.597656 82.328125 57.4375 87.675781 C 57.28125 93.019531 57.175781 96.6875 58.226562 99.558594 C 59.277344 102.425781 60.328125 108.875 69.296875 106.996094 C 76.789062 105.390625 80.671875 101.21875 81.21875 94.28125 C 81.601562 89.347656 82.46875 90.074219 82.53125 85.664062 L 83.230469 83.570312 C 84.03125 76.878906 83.359375 74.71875 87.976562 75.726562 L 89.101562 75.828125 C 92.5 75.980469 96.949219 75.28125 99.558594 74.070312 C 105.179688 71.460938 108.511719 67.105469 102.96875 68.25 Z M 102.964844 68.25 "/>
<path style="fill:none;stroke-width:0.716;stroke-linecap:round;stroke-linejoin:round;stroke:rgb(100%,100%,100%);stroke-opacity:1;stroke-miterlimit:4;" d="M 12.814286 16.466964 C 12.733929 19.313393 12.833929 22.178571 13.111607 22.866964 C 13.390179 23.555357 13.986607 24.916964 16.038393 24.478571 C 17.750893 24.111607 18.375 23.400893 18.644643 21.832143 L 19.277679 16.815179 M 10.35625 2.2 C 10.35625 2.2 1.072321 -1.596429 1.503571 7.033036 C 1.596429 8.86875 4.133929 20.933036 7.164286 17.283036 C 8.269643 15.95 9.269643 14.907143 9.269643 14.907143 M 15.369643 1.507143 C 15.05 1.607143 20.533929 -0.498214 23.651786 3.484821 C 24.751786 4.891964 23.476786 10.641964 20.424107 15.172321 " transform="matrix(4.375,0,0,4.375,0,0)"/>
<path style="fill:none;stroke-width:0.716;stroke-linecap:round;stroke-linejoin:bevel;stroke:rgb(100%,100%,100%);stroke-opacity:1;stroke-miterlimit:4;" d="M 20.425 15.169643 C 20.425 15.169643 20.625 16.15 23.525 15.551786 C 24.791964 15.290179 24.028571 16.285714 22.744643 16.882143 C 21.691071 17.372321 19.326786 17.497321 19.288393 16.822321 C 19.188393 15.076786 20.532143 15.607143 20.434821 15.169643 C 20.347321 14.775893 19.744643 14.390179 19.349107 13.425893 C 19.001786 12.585714 14.589286 6.135714 20.573214 7.092857 C 20.792857 7.048214 19.013393 1.392857 13.413393 1.310714 C 7.813393 1.228571 7.990179 8.196429 7.990179 8.196429 " transform="matrix(4.375,0,0,4.375,0,0)"/>
<path style="fill:none;stroke-width:0.716;stroke-linecap:butt;stroke-linejoin:round;stroke:rgb(100%,100%,100%);stroke-opacity:1;stroke-miterlimit:4;" d="M 11.247321 15.767857 C 10.466964 16.640179 10.697321 16.792857 9.136607 17.114286 C 7.558929 17.439286 8.486607 18.017857 9.091071 18.169643 C 9.825 18.353571 11.523214 18.614286 12.671429 17.007143 C 13.021429 16.516964 12.66875 15.736607 12.189286 15.539286 C 11.957143 15.442857 11.647321 15.323214 11.249107 15.76875 Z M 11.247321 15.767857 " transform="matrix(4.375,0,0,4.375,0,0)"/>
<path style="fill:none;stroke-width:0.716;stroke-linecap:round;stroke-linejoin:round;stroke:rgb(100%,100%,100%);stroke-opacity:1;stroke-miterlimit:4;" d="M 11.196429 15.752679 C 11.116071 15.240179 11.364286 14.63125 11.628571 13.916964 C 12.026786 12.847321 12.944643 11.776786 12.210714 8.380357 C 11.664286 5.85 7.991071 7.852679 7.991071 8.196429 C 7.991071 8.539286 8.157143 9.935714 7.93125 11.560714 C 7.633929 13.683036 9.28125 15.476786 11.176786 15.29375 " transform="matrix(4.375,0,0,4.375,0,0)"/>
<path style="fill-rule:nonzero;fill:rgb(100%,100%,100%);fill-opacity:1;stroke-width:0.239;stroke-linecap:butt;stroke-linejoin:miter;stroke:rgb(100%,100%,100%);stroke-opacity:1;stroke-miterlimit:4;" d="M 10.322321 8.144643 C 10.305357 8.261607 10.536607 8.575 10.838393 8.616964 C 11.139286 8.658929 11.396429 8.415179 11.413393 8.297321 C 11.430357 8.178571 11.198214 8.050893 10.897321 8.008929 C 10.596429 7.966964 10.336607 8.028571 10.322321 8.144643 Z M 10.322321 8.144643 " transform="matrix(4.375,0,0,4.375,0,0)"/>
<path style="fill-rule:nonzero;fill:rgb(100%,100%,100%);fill-opacity:1;stroke-width:0.119;stroke-linecap:butt;stroke-linejoin:miter;stroke:rgb(100%,100%,100%);stroke-opacity:1;stroke-miterlimit:4;" d="M 19.485714 7.90625 C 19.501786 8.023214 19.271429 8.335714 18.969643 8.377679 C 18.66875 8.419643 18.409821 8.175893 18.394643 8.058036 C 18.380357 7.940179 18.609821 7.811607 18.910714 7.769643 C 19.211607 7.727679 19.471429 7.790179 19.485714 7.90625 Z M 19.485714 7.90625 " transform="matrix(4.375,0,0,4.375,0,0)"/>
<path style="fill:none;stroke-width:0.716;stroke-linecap:round;stroke-linejoin:round;stroke:rgb(100%,100%,100%);stroke-opacity:1;stroke-miterlimit:4;" d="M 20.561607 7.094643 C 20.611607 8.015179 20.364286 8.640179 20.332143 9.61875 C 20.285714 11.041071 21.009821 12.66875 19.91875 14.299107 " transform="matrix(4.375,0,0,4.375,0,0)"/>
</g>
</svg>
